<svg height="511pt" viewBox="0 0 511 511.93534" width="511pt" xmlns="http://www.w3.org/2000/svg"><path d="m10.09375 412.300781c12.09375 17.578125 25.898438 33.917969 41.207031 48.777344 14.859375 15.308594 31.199219 29.113281 48.777344 41.207031 9.628906 6.324219 20.90625 9.679688 32.425781 9.648438 16.113282 0 31.5625-6.398438 42.957032-17.792969l141.933593-141.9375c47.429688-47.433594 47.222657-90.894531 45.460938-105.613281 94.359375-84.582032 115.414062-132.632813 119.304687-143.820313l22.742188-22.734375c9.976562-10.027344 9.972656-26.234375-.007813-36.257812l-36.292969-36.300782c-10.03125-9.972656-26.230468-9.96875-36.257812.007813l-22.734375 22.734375c-11.183594 3.890625-59.234375 24.941406-143.820313 119.304688-14.71875-1.757813-58.183593-1.964844-105.613281 45.460937l-141.9375 141.933594c-20.171875 20.054687-23.566406 51.484375-8.144531 75.382812zm168.257812 54.816407c-11.929687-6.589844-44.164062-27.027344-83.566406-73.75l131.414063-131.230469c23.429687 28.996093 51.449219 53.964843 82.941406 73.917969-1.285156 1.363281-2.449219 2.707031-3.820313 4.082031zm266.058594-447.558594c3.347656-3.34375 8.773438-3.347656 12.125-.007813l36.285156 36.292969c3.339844 3.351562 3.34375 8.769531.007813 12.125l-18.160156 18.160156-12.117188-12.109375c-2.144531-2.210937-5.3125-3.09375-8.292969-2.3125-2.980468.78125-5.304687 3.109375-6.085937 6.085938-.785156 2.980469.101563 6.148437 2.3125 8.292969l14.289063 14.289062c-10.613282 21.835938-24.292969 42.039062-40.625 60-14.855469-8.675781-28.402344-19.425781-40.222657-31.921875-12.507812-11.824219-23.257812-25.375-31.925781-40.242187 17.957031-16.339844 38.164062-30.015626 60.003906-40.617188l8.238282 8.25c2.148437 2.199219 5.3125 3.078125 8.285156 2.292969 2.972656-.78125 5.296875-3.105469 6.078125-6.078125.785156-2.972656-.09375-6.136719-2.292969-8.28125l-6.058594-6.066406zm-105.519531 80.128906c9.230469 14.941406 20.304687 28.660156 32.96875 40.832031 12.175781 12.667969 25.898437 23.75 40.847656 32.980469-19.136719 20.953125-39.351562 40.894531-60.5625 59.746094-15.101562-8.683594-28.84375-19.539063-40.789062-32.21875-12.691407-11.953125-23.554688-25.710938-32.242188-40.824219 18.855469-21.203125 38.808594-41.402344 59.777344-60.519531zm-166.648437 107.363281c42.085937-42.066406 79.128906-42.003906 90.875-40.683593 9.492187 17.402343 21.703124 33.175781 36.167968 46.726562 13.550782 14.464844 29.324219 26.671875 46.722656 36.167969 1.140626 10.105469 1.289063 38.945312-25.5 73.640625-31.007812-19.113282-58.507812-43.40625-81.304687-71.8125-3.117187-3.671875-7.625-5.871094-12.433594-6.070313-4.757812-.273437-9.398437 1.539063-12.714843 4.960938l-131.34375 131.328125c-6.226563 6.304687-6.648438 16.304687-.976563 23.109375 23.683594 29.550781 52.097656 54.96875 84.09375 75.226562l-2.433594 2.433594c-14.316406 14.46875-36.800781 16.953125-53.929687 5.957031-16.609375-11.464844-32.046875-24.535156-46.09375-39.023437-14.488282-14.046875-27.5625-29.484375-39.027344-46.089844-10.992188-17.132813-8.507812-39.613281 5.957031-53.929687zm0 0"/><path d="m93.628906 330.511719c2.261719 0 4.433594-.898438 6.03125-2.5l108.871094-108.867188c3.246094-3.347656 3.203125-8.679687-.09375-11.976562-3.292969-3.296875-8.628906-3.335938-11.972656-.089844l-108.871094 108.863281c-2.441406 2.441406-3.171875 6.113282-1.851562 9.300782 1.324218 3.1875 4.433593 5.269531 7.886718 5.269531zm0 0"/><path d="m45.242188 378.902344c2.265624.003906 4.4375-.898438 6.035156-2.5l24.191406-24.199219c3.261719-3.34375 3.226562-8.6875-.074219-11.992187-3.304687-3.300782-8.648437-3.335938-11.992187-.074219l-24.191406 24.199219c-2.441407 2.4375-3.171876 6.109374-1.851563 9.296874 1.320313 3.191407 4.433594 5.269532 7.882813 5.269532zm0 0"/></svg>