<?xml version="1.0" encoding="iso-8859-1"?>
<!-- Generator: Adobe Illustrator 19.0.0, SVG Export Plug-In . SVG Version: 6.00 Build 0)  -->
<svg version="1.1" id="Capa_1" xmlns="http://www.w3.org/2000/svg" xmlns:xlink="http://www.w3.org/1999/xlink" x="0px" y="0px"
	 viewBox="0 0 480 480" style="enable-background:new 0 0 480 480;" xml:space="preserve">
<g>
	<g>
		<path d="M201.152,156.08c-4.374-0.636-8.436,2.394-9.072,6.768L189.6,180H82.4l-2.488-17.152
			c-0.636-4.374-4.698-7.404-9.072-6.768c-4.374,0.636-7.404,4.698-6.768,9.072l15.128,103.8c0.679,6.108,2.337,12.067,4.912,17.648
			c13.254,28.661,47.233,41.151,75.894,27.898c18.069-8.356,30.491-25.508,32.794-45.282l15.12-104.064
			C208.556,160.778,205.526,156.716,201.152,156.08z M176.936,267.2c-0.492,4.403-1.689,8.697-3.544,12.72
			c-9.533,20.651-34.003,29.664-54.654,20.13c-8.89-4.104-16.027-11.241-20.13-20.13c-1.885-4.104-3.092-8.486-3.576-12.976
			L84.736,196h102.536L176.936,267.2z"/>
	</g>
</g>
<g>
	<g>
		<path d="M409.152,156.08c-4.374-0.636-8.436,2.394-9.072,6.768L397.6,180H290.4l-2.488-17.152
			c-0.636-4.374-4.698-7.404-9.072-6.768c-4.374,0.636-7.404,4.698-6.768,9.072l15.128,103.8c0.679,6.108,2.337,12.067,4.912,17.648
			c13.254,28.661,47.233,41.151,75.894,27.898c18.069-8.356,30.491-25.508,32.794-45.282l15.12-104.064
			C416.556,160.778,413.526,156.716,409.152,156.08z M384.936,267.2c-0.492,4.403-1.689,8.697-3.544,12.72
			c-9.533,20.651-34.003,29.664-54.654,20.13c-8.89-4.104-16.027-11.241-20.13-20.13c-1.884-4.104-3.092-8.486-3.576-12.976
			L292.736,196h102.536L384.936,267.2z"/>
	</g>
</g>
<g>
	<g>
		<path d="M472,332h-48.256c0.74-1.957,1.213-4.005,1.408-6.088L440,140.64c0.354-4.404-2.93-8.261-7.334-8.614
			c-0.221-0.018-0.444-0.026-0.666-0.026H256c-4.418-0.014-8.011,3.556-8.026,7.974c-0.001,0.222,0.008,0.444,0.026,0.666
			l14.824,185.28c0.196,2.08,0.669,4.125,1.408,6.08h-48.488c0.74-1.957,1.213-4.005,1.408-6.088L232,140.64
			c0.354-4.404-2.93-8.261-7.334-8.614c-0.221-0.018-0.444-0.026-0.666-0.026H48c-4.418-0.014-8.011,3.556-8.026,7.974
			c-0.001,0.222,0.008,0.444,0.026,0.666l14.848,185.28c0.196,2.081,0.669,4.125,1.408,6.08H8c-4.418,0-8,3.582-8,8s3.582,8,8,8h464
			c4.418,0,8-3.582,8-8S476.418,332,472,332z M201.208,324.64c-0.357,4.156-3.829,7.35-8,7.36H78.768
			c-4.171-0.01-7.643-3.204-8-7.36L56.664,148h158.672L201.208,324.64z M409.208,324.64c-0.357,4.156-3.829,7.35-8,7.36h-114.44
			c-4.171-0.01-7.643-3.204-8-7.36L264.664,148h158.672L409.208,324.64z"/>
	</g>
</g>
<g>
</g>
<g>
</g>
<g>
</g>
<g>
</g>
<g>
</g>
<g>
</g>
<g>
</g>
<g>
</g>
<g>
</g>
<g>
</g>
<g>
</g>
<g>
</g>
<g>
</g>
<g>
</g>
<g>
</g>
</svg>
