<svg height="512pt" viewBox="-117 0 512 512" width="512pt" xmlns="http://www.w3.org/2000/svg"><path d="m278.921875 264.789062h-.074219v-2.929687c0-37.816406-19.042968-72.515625-50.941406-92.828125l-31.371094-19.972656v-149.058594h-114.222656v149.058594l-31.371094 19.972656c-31.898437 20.3125-50.941406 55.011719-50.941406 92.828125v250.140625h278.851562zm-248.863281 30.058594h218.730468v127.96875h-218.730468zm136.417968-264.789062v20.042968h-54.105468v-20.042968zm-54.105468 135.496094v-85.394532h54.105468v85.394532l32.261719 20.539062c-18.722656 7.636719-38.851562 11.625-59.3125 11.625-20.457031 0-40.589843-3.992188-59.3125-11.625zm-82.3125 96.304687c0-21.074219 8.144531-40.808594 22.386718-55.523437 26.714844 14.042968 56.558594 21.441406 86.980469 21.441406 30.429688 0 60.265625-7.390625 86.980469-21.4375 14.242188 14.714844 22.382812 34.449218 22.382812 55.519531v2.929687h-218.730468zm218.730468 220.082031h-218.730468v-29.066406h218.730468zm0 0"/></svg>