<svg height="512pt" viewBox="-41 0 512 512" width="512pt" xmlns="http://www.w3.org/2000/svg"><path d="m415 0h-400c-8.285156 0-15 6.714844-15 15v482c0 8.285156 6.714844 15 15 15h400c8.285156 0 15-6.714844 15-15v-482c0-8.285156-6.714844-15-15-15zm-15 30v172h-21.664062c-1.671876-3.527344-3.957032-6.835938-6.871094-9.75l-61.714844-61.714844c-13.648438-13.644531-35.851562-13.644531-49.496094 0l-61.71875 61.714844c-2.914062 2.914062-5.199218 6.222656-6.871094 9.75h-161.664062v-172zm0 392h-218.785156l50.25-50.25c13.648437-13.648438 13.648437-35.851562 0-49.5l-61.714844-61.714844c-13.648438-13.644531-35.851562-13.644531-49.496094 0l-61.71875 61.714844c-13.644531 13.648438-13.644531 35.851562 0 49.5l50.25 50.25h-78.785156v-190h161.664062c1.671876 3.527344 3.957032 6.835938 6.871094 9.75l61.714844 61.714844c6.824219 6.824218 15.785156 10.234375 24.75 10.234375 8.960938 0 17.925781-3.414063 24.75-10.234375l61.714844-61.714844c2.914062-2.914062 5.199218-6.222656 6.871094-9.75h21.664062zm-258.535156-9.75-61.71875-61.714844c-1.949219-1.949218-1.949219-5.121094 0-7.070312l61.71875-61.714844c.972656-.976562 2.253906-1.464844 3.535156-1.464844s2.5625.488282 3.535156 1.464844l61.71875 61.714844c1.949219 1.949218 1.949219 5.121094 0 7.070312l-61.71875 61.714844c-1.949218 1.949219-5.121094 1.949219-7.070312 0zm78.285156-198.785156 61.714844-61.714844c.976562-.976562 2.253906-1.464844 3.535156-1.464844s2.5625.488282 3.535156 1.464844l61.71875 61.714844c1.949219 1.949218 1.949219 5.121094 0 7.070312l-61.71875 61.714844c-1.949218 1.949219-5.121094 1.949219-7.070312 0l-61.714844-61.714844c-1.949219-1.949218-1.949219-5.121094 0-7.070312zm-189.75 268.535156v-30h370v30zm0 0"/></svg>