<svg height="512pt" viewBox="-123 0 512 512" width="512pt" xmlns="http://www.w3.org/2000/svg"><path d="m224.402344 222.382812-22.117188-13.644531c-15.761718-9.730469-25.175781-26.597656-25.175781-45.121093v-85.859376h2.523437c4.183594 0 7.574219-3.390624 7.574219-7.574218v-62.609375c0-4.183594-3.390625-7.574219-7.574219-7.574219h-92.90625c-4.183593 0-7.574218 3.390625-7.574218 7.574219v62.609375c0 4.183594 3.390625 7.574218 7.574218 7.574218h2.527344v85.859376c0 18.523437-9.414062 35.390624-25.179687 45.117187l-22.117188 13.648437c-29.257812 18.054688-45.472656 51.769532-41.3125 85.894532l3.546875 29.070312c.5 4.101563 4.335938 7.09375 8.433594 6.601563 4.097656-.5 7.101562-4.339844 6.601562-8.4375l-3.542968-29.066407c-3.449219-28.277343 9.988281-56.210937 34.230468-71.171874l22.117188-13.644532c20.269531-12.507812 32.371094-34.195312 32.371094-58.015625v-49.5h57.558594v49.5c0 23.820313 12.105468 45.507813 32.371093 58.015625l22.117188 13.644532c24.246093 14.960937 37.679687 42.894531 34.230469 71.171874l-3.542969 29.066407c-.484375 3.992187 2.355469 7.765625 6.328125 8.398437 4.179687.660156 8.195312-2.359375 8.710937-6.5625l3.542969-29.070312c4.160156-34.125-12.058594-67.839844-41.316406-85.894532zm-130.101563-207.234374h77.757813v47.464843h-77.757813zm10.097657 62.609374h57.5625v21.207032h-57.5625zm0 0"/><path d="m251.234375 364.464844c-4.148437-.5-7.929687 2.449218-8.4375 6.601562l-11.820313 96.9375c-2.007812 16.445313-16.011718 28.847656-32.578124 28.847656h-130.4375c-16.570313 0-30.574219-12.402343-32.578126-28.847656l-11.824218-96.9375c-.503906-4.152344-4.285156-7.097656-8.433594-6.601562-4.152344.507812-7.109375 4.285156-6.601562 8.4375l11.820312 96.9375c2.933594 24.035156 23.402344 42.160156 47.617188 42.160156h130.4375c24.214843 0 44.683593-18.125 47.613281-42.160156l11.824219-96.9375c.503906-4.152344-2.449219-7.929688-6.601563-8.4375zm0 0"/><path d="m60.46875 399.316406c-4.183594 0-7.574219 3.390625-7.574219 7.574219v24.824219c0 9.746094 7.929688 17.675781 17.675781 17.675781h125.222657c9.742187 0 17.671875-7.929687 17.671875-17.675781v-139.359375c0-9.746094-7.929688-17.671875-17.671875-17.671875h-18.3125c-3.609375-21.1875-22.101563-37.367188-44.300781-37.367188-22.199219 0-40.691407 16.179688-44.300782 37.367188h-18.3125c-9.742187 0-17.671875 7.925781-17.671875 17.671875v79.210937c0 4.183594 3.390625 7.574219 7.574219 7.574219s7.574219-3.390625 7.574219-7.574219v-79.210937c0-1.394531 1.132812-2.527344 2.523437-2.527344h25.25c4.179688 0 7.570313-3.390625 7.570313-7.570313 0-16.429687 13.367187-29.792968 29.792969-29.792968 16.425781 0 29.789062 13.363281 29.789062 29.792968 0 4.179688 3.394531 7.570313 7.574219 7.570313h25.25c1.390625 0 2.523437 1.132813 2.523437 2.527344v139.359375c0 1.394531-1.132812 2.527344-2.523437 2.527344h-125.226563c-1.390625 0-2.523437-1.132813-2.523437-2.527344v-24.824219c0-4.183594-3.390625-7.574219-7.574219-7.574219zm0 0"/></svg>