<?xml version="1.0" encoding="iso-8859-1"?>
<!-- Generator: Adobe Illustrator 19.0.0, SVG Export Plug-In . SVG Version: 6.00 Build 0)  -->
<svg version="1.1" id="Capa_1" xmlns="http://www.w3.org/2000/svg" xmlns:xlink="http://www.w3.org/1999/xlink" x="0px" y="0px"
	 viewBox="0 0 363.354 363.354" style="enable-background:new 0 0 363.354 363.354;" xml:space="preserve">
<g>
	<g>
		<g>
			<path d="M299.333,231.913c-8.647-29.397-31.431-86.509-41.094-96.172c-7.579-7.58-21.054-11.423-40.049-11.423
				c-7.294,0-9.067-7.025-9.384-8.692V90.593c0-1.233,0.198-1.78,0.271-1.94c3.346-2.661,5.261-6.474,5.261-10.485v-7.491
				c0-1.847-1.017-3.543-2.647-4.412c-0.029-0.015-2.885-1.663-2.885-4.439c0-3.706,1.407-7.151,3.962-13.407
				c0.708-1.731,1.487-3.641,2.33-5.787c4.525-11.515,4.889-22.073,1.081-31.382c-4.658-11.389-31.59-11.298-34.502-11.242
				c-2.907-0.053-29.843-0.148-34.502,11.241c-3.807,9.309-3.443,19.867,1.081,31.383c0.843,2.146,1.623,4.056,2.33,5.787
				c2.555,6.256,3.962,9.701,3.962,13.407c0,2.762-2.822,4.402-2.885,4.439c-1.629,0.869-2.647,2.565-2.647,4.412v7.491
				c0,4.01,1.915,7.823,5.261,10.485c0.073,0.16,0.271,0.708,0.271,1.94v25.026c-0.333,1.733-2.121,8.699-9.384,8.699
				c-18.995,0-32.469,3.843-40.049,11.423c-9.663,9.664-32.447,66.776-41.093,96.172c-10.145,34.494-17.906,62.123-17.906,77.757
				c0,17.394,13.298,31.578,18.976,37.635l0.08,0.085c3.482,3.714,8.556,8.333,12.2,11.553c3.218,2.845,7.36,4.411,11.664,4.411
				h185.282c4.304,0,8.447-1.566,11.665-4.411c3.641-3.219,8.715-7.836,12.2-11.553l0.079-0.085
				c5.679-6.057,18.977-20.241,18.977-37.635C317.239,294.042,309.479,266.411,299.333,231.913z M156.4,15.098
				c1.68-2.711,15.723-5.566,25.025-5.1c0.168,0.01,0.336,0.01,0.504,0c9.319-0.461,23.345,2.39,24.994,5.037
				c2.84,6.942,2.47,14.772-1.132,23.939c-0.825,2.1-1.589,3.969-2.28,5.663c-2.833,6.936-4.705,11.519-4.705,17.188
				c0,1.66,0.287,3.185,0.766,4.568h-35.789c0.478-1.383,0.765-2.908,0.765-4.568c0-5.669-1.872-10.252-4.705-17.188
				c-0.692-1.694-1.455-3.563-2.28-5.663C153.961,29.807,153.591,21.976,156.4,15.098z M290.967,340.466l-0.079,0.084
				c-3.219,3.433-8.046,7.823-11.528,10.9c-1.389,1.227-3.179,1.903-5.041,1.903H89.036c-1.863,0-3.653-0.675-5.042-1.903
				c-3.483-3.079-8.31-7.468-11.527-10.9l-0.08-0.084c-5.281-5.634-16.271-17.357-16.271-30.796c0-15.437,9.703-48.427,17.5-74.935
				c9.349-31.787,31.698-85.051,38.571-91.924c5.478-5.476,17.189-8.493,32.978-8.493c13.362,0,18.491-11.506,19.336-17.59
				c0.031-0.228,0.047-0.458,0.047-0.688V90.592c0-5.463-2.178-8.309-4.005-9.734c-0.459-0.358-1.527-1.337-1.527-2.691v-1.773
				h45.321v1.774c0,1.354-1.067,2.333-1.527,2.691c-1.827,1.425-4.005,4.272-4.005,9.734v25.447c0,0.231,0.016,0.46,0.048,0.688
				c0.845,6.084,5.973,17.59,19.336,17.59c15.79,0,27.501,3.016,32.978,8.493c6.872,6.872,29.221,60.137,38.571,91.924
				c7.797,26.511,17.5,59.504,17.5,74.935C307.238,323.11,296.248,334.832,290.967,340.466z"/>
			<path d="M275.766,337.055c-1.434-0.841-35.764-20.604-93.26-20.604c-57.423,0-93.833,19.698-95.355,20.537
				c-2.418,1.332-3.299,4.373-1.966,6.792c0.911,1.653,2.621,2.588,4.384,2.588c0.816,0,1.643-0.201,2.408-0.622
				c0.35-0.192,35.653-19.295,90.529-19.295c54.355,0,87.585,18.875,88.197,19.229c2.385,1.398,5.445,0.599,6.844-1.781
				C278.945,341.517,278.147,338.453,275.766,337.055z"/>
			<path d="M137.185,269.284h88.983c2.762,0,5-2.239,5-5v-69.337c0-2.762-2.238-5-5-5h-88.983c-2.761,0-5,2.238-5,5v69.337
				C132.185,267.046,134.424,269.284,137.185,269.284z M142.185,199.947h78.983v59.337h-78.983V199.947z"/>
		</g>
	</g>
</g>
<g>
</g>
<g>
</g>
<g>
</g>
<g>
</g>
<g>
</g>
<g>
</g>
<g>
</g>
<g>
</g>
<g>
</g>
<g>
</g>
<g>
</g>
<g>
</g>
<g>
</g>
<g>
</g>
<g>
</g>
</svg>
