<svg height="511pt" viewBox="0 -44 511.99976 511" width="511pt" xmlns="http://www.w3.org/2000/svg"><path d="m497 220.066406h-80.609375c5.210937-20.363281 7.535156-40.664062 6.910156-60.574218-.78125-24.914063-6.144531-48.09375-15.957031-68.988282 3.453125-11.664062 6.390625-24.347656 8.066406-34.957031 3.417969-21.640625 1.738282-34.011719-5.617187-41.371094-7.359375-7.355469-19.730469-9.039062-41.371094-5.621093-10.609375 1.679687-23.292969 4.617187-34.957031 8.070312-76.628906-35.972656-180.054688-10.4375-253.917969 63.425781-73.859375 73.859375-99.394531 177.285157-63.425781 253.914063-3.453125 11.664062-6.390625 24.347656-8.066406 34.957031-3.417969 21.640625-1.738282 34.011719 5.621093 41.371094 7.355469 7.359375 19.726563 9.039062 41.367188 5.621093 10.613281-1.675781 23.296875-4.617187 34.960937-8.066406 22.855469 10.710938 48.46875 16.070313 75.28125 16.066406 27.003906 0 55.226563-5.441406 83.050782-16.3125 23.089843 10.125 48.582031 15.757813 75.367187 15.757813 103.828125 0 188.296875-84.46875 188.296875-188.296875 0-8.28125-6.714844-14.996094-15-14.996094zm-242.988281 105.898438 54.691406-54.691406v77.394531c-20.394531-2.675781-39.117187-10.734375-54.691406-22.703125zm-43.921875-75.902344h77.402344l-54.691407 54.691406c-11.96875-15.574218-20.035156-34.296875-22.710937-54.691406zm128.609375 21.210938 54.691406 54.691406c-15.574219 11.96875-34.296875 20.027344-54.691406 22.703125zm75.902343 33.480468-54.691406-54.691406h77.402344c-2.675781 20.394531-10.742188 39.117188-22.710938 54.691406zm-316.417968 73.6875c-3.550782-1.839844-7.683594-2.1875-11.488282-.964844-19.941406 6.40625-40.855468 10.1875-50.398437 10.195313.007813-9.542969 3.785156-30.457031 10.191406-50.402344 1.222657-3.804687.878907-7.9375-.960937-11.488281-34.023438-65.652344-11.3125-157.980469 55.230468-224.523438 66.539063-66.539062 158.871094-89.253906 224.523438-55.230468 3.550781 1.839844 7.683594 2.1875 11.488281.964844 20.1875-6.484376 40.710938-10.214844 50.269531-10.214844h.132813c-.003906 9.535156-3.785156 30.464844-10.195313 50.421875-1.222656 3.800781-.875 7.9375.960938 11.484375 17.605469 33.976562 20.144531 77.714844 7.324219 121.382812h-234.859375c-8.28125 0-14.996094 6.714844-14.996094 14.996094 0 62.628906 30.742188 118.207031 77.921875 152.457031-41.59375 10.914063-82.363281 7.90625-115.144531-9.078125zm225.519531 14.921875c-82.234375 0-150.019531-63.019531-157.597656-143.300781h13.785156c3.449219 33.328125 18.273437 63.328125 40.507813 86.050781.332031.410157.683593.808594 1.066406 1.1875.378906.382813.777344.734375 1.1875 1.066407 26.085937 25.523437 61.757812 41.28125 101.050781 41.28125 39.289063 0 74.960937-15.757813 101.046875-41.28125.410156-.332032.808594-.683594 1.191406-1.066407.378906-.382812.734375-.78125 1.066406-1.191406 22.230469-22.722656 37.054688-52.71875 40.503907-86.046875h13.785156c-7.574219 80.28125-75.363281 143.300781-157.59375 143.300781zm0 0"/></svg>