<?xml version="1.0" encoding="iso-8859-1"?>
<!-- Generator: Adobe Illustrator 19.0.0, SVG Export Plug-In . SVG Version: 6.00 Build 0)  -->
<svg version="1.1" id="Capa_1" xmlns="http://www.w3.org/2000/svg" xmlns:xlink="http://www.w3.org/1999/xlink" x="0px" y="0px"
	 viewBox="0 0 512.001 512.001" style="enable-background:new 0 0 512.001 512.001;" xml:space="preserve">
<g>
	<g>
		<path d="M214.794,431.341h-90.066c-4.145,0-7.505,3.36-7.505,7.505s3.36,7.505,7.505,7.505h90.066c4.145,0,7.505-3.36,7.505-7.505
			S218.939,431.341,214.794,431.341z"/>
	</g>
</g>
<g>
	<g>
		<path d="M214.794,457.885h-90.066c-4.145,0-7.505,3.36-7.505,7.505s3.36,7.505,7.505,7.505h90.066c4.145,0,7.505-3.36,7.505-7.505
			S218.939,457.885,214.794,457.885z"/>
	</g>
</g>
<g>
	<g>
		<path d="M247.397,152.008l-9.458-7.964c-12.721-10.712-22.053-24.528-27.267-39.88c-0.07-0.261-0.153-0.517-0.249-0.766
			c-2.967-9-4.529-18.512-4.529-28.23v-9.484c3.988-2.201,6.697-6.446,6.697-11.314V12.916C212.59,5.794,206.796,0,199.674,0
			h-59.827c-7.122,0-12.916,5.794-12.916,12.916V54.37c0,4.868,2.709,9.113,6.697,11.314v9.484c0,9.717-1.563,19.23-4.529,28.23
			c-0.097,0.249-0.179,0.505-0.249,0.766c-5.213,15.351-14.545,29.168-27.267,39.88l-9.458,7.964
			c-5.859,4.933-9.219,12.155-9.219,19.813v313.9c0,14.49,11.788,26.279,26.278,26.279h121.153c14.49,0,26.278-11.789,26.278-26.279
			v-313.9C256.615,164.163,253.256,156.941,247.397,152.008z M197.579,15.011v37.264h-55.637V15.011H197.579z M193.522,98.603
			h-47.523c1.736-7.611,2.64-15.464,2.64-23.436v-7.881h42.244v7.881C190.883,83.139,191.786,90.992,193.522,98.603z
			 M241.605,485.721c0,6.213-5.054,11.268-11.267,11.268H109.184c-6.213,0-11.267-5.055-11.267-11.268V335.387l143.688,66.508
			V485.721z M241.605,385.355L97.917,318.847v-9.763L241.605,376.3V385.355z M241.605,359.728L97.917,292.511v-39.635
			l143.688,67.217V359.728z M241.605,275.215l-86.763-40.16c-3.762-1.742-8.223-0.103-9.964,3.658
			c-1.742,3.762-0.103,8.223,3.658,9.964l93.068,43.078v11.765L97.917,236.304v-11.056l18.413,8.523
			c3.762,1.742,8.223,0.103,9.964-3.658c1.742-3.762,0.103-8.223-3.658-9.964l-24.719-11.441v-36.886
			c0-3.22,1.413-6.257,3.876-8.331l9.459-7.965c13.554-11.414,23.804-25.851,30.115-41.911h56.788
			c6.31,16.061,16.56,30.498,30.115,41.911l9.459,7.965c2.463,2.074,3.876,5.11,3.876,8.33V275.215z"/>
	</g>
</g>
<g>
	<g>
		<path d="M425.281,355.621c-2.746-2.998-6.653-4.718-10.719-4.718H298.874c-4.066,0-7.973,1.72-10.719,4.718
			c-2.746,2.999-4.116,7.041-3.76,11.093l11.316,128.374c0.585,6.629,4.52,12.137,10.068,14.932
			c2.522,1.271,5.377,1.981,8.401,1.981h85.073c3.025,0,5.88-0.71,8.401-1.981c5.548-2.795,9.484-8.303,10.068-14.932
			l11.316-128.374C429.397,362.663,428.027,358.62,425.281,355.621z M402.771,493.768c-0.142,1.606-1.317,2.867-2.843,3.158
			c-0.218,0.041-0.443,0.063-0.674,0.063h-85.073c-0.23,0-0.456-0.022-0.674-0.063c-1.526-0.29-2.701-1.551-2.843-3.158
			l-0.655-7.427h93.415L402.771,493.768z M411.513,394.601h-54.795c-4.145,0-7.505,3.36-7.505,7.505s3.36,7.505,7.505,7.505h53.472
			l-5.437,61.676c-0.146,0.013-0.28,0.043-0.436,0.043h-95.198c-0.156,0-0.29-0.029-0.436-0.043l-5.437-61.676h17.999
			c4.145,0,7.505-3.36,7.505-7.505s-3.36-7.505-7.505-7.505h-19.323l-2.529-28.687H414.04L411.513,394.601z"/>
	</g>
</g>
<g>
</g>
<g>
</g>
<g>
</g>
<g>
</g>
<g>
</g>
<g>
</g>
<g>
</g>
<g>
</g>
<g>
</g>
<g>
</g>
<g>
</g>
<g>
</g>
<g>
</g>
<g>
</g>
<g>
</g>
</svg>
