<?xml version="1.0" encoding="iso-8859-1"?>
<!-- Generator: Adobe Illustrator 19.0.0, SVG Export Plug-In . SVG Version: 6.00 Build 0)  -->
<svg version="1.1" id="Capa_1" xmlns="http://www.w3.org/2000/svg" xmlns:xlink="http://www.w3.org/1999/xlink" x="0px" y="0px"
	 viewBox="0 0 512.001 512.001" style="enable-background:new 0 0 512.001 512.001;" xml:space="preserve">
<g>
	<g>
		<g>
			<path d="M298.457,208.342h-84.912c-4.143,0-7.5,3.358-7.5,7.5c0,4.142,3.357,7.5,7.5,7.5h84.912c4.143,0,7.5-3.358,7.5-7.5
				C305.957,211.7,302.6,208.342,298.457,208.342z"/>
			<path d="M329.248,289.802c-1.118-3.945-3.857-7.28-7.513-9.15c-19.234-9.84-41.965-15.041-65.734-15.041
				c-23.769,0-46.5,5.201-65.734,15.041c-3.656,1.871-6.395,5.206-7.513,9.15c-1.113,3.93-0.536,8.185,1.583,11.676l4.563,7.515
				c2.742,4.518,7.644,7.064,12.679,7.064c2.252,0,4.531-0.51,6.654-1.58c13.528-6.815,30.492-10.568,47.769-10.568
				c17.277,0,34.24,3.753,47.768,10.568c6.876,3.463,15.366,1.054,19.334-5.483l4.563-7.514
				C329.784,297.987,330.361,293.731,329.248,289.802z M310.396,301.019c-15.781-7.924-34.587-12.111-54.395-12.111
				c-19.806,0-38.609,4.187-54.395,12.11l-4.317-7.11c16.852-8.576,37.692-13.297,58.712-13.297s41.86,4.721,58.712,13.297
				L310.396,301.019z"/>
			<path d="M220.225,417.712c-4.143,0-7.5,3.358-7.5,7.5c0,4.142,3.357,7.5,7.5,7.5h71.553c4.143,0,7.5-3.358,7.5-7.5
				c0-4.142-3.357-7.5-7.5-7.5H220.225z"/>
			<path d="M369.76,287.8c4.143,0,7.5-3.358,7.5-7.5v-42.027c0-15.825-5.773-31.067-16.257-42.919l-13.425-15.179
				c-6.473-7.318-15.788-11.515-25.559-11.515h-8.311c-1.118,0-1.807-0.613-2.118-0.979c-0.312-0.365-0.807-1.144-0.628-2.247
				c4.213-26.079,3.168-52.311-3.107-77.969l-1.379-5.64c6.071-2.468,10.362-8.431,10.362-15.378V16.592
				C316.839,7.443,309.396,0,300.247,0h-88.492c-9.148,0-16.592,7.443-16.592,16.592v49.856c0,6.947,4.292,12.91,10.362,15.378
				l-1.379,5.64c-6.275,25.658-7.32,51.89-3.107,77.968c0.179,1.104-0.316,1.882-0.628,2.248c-0.312,0.366-1,0.979-2.118,0.979
				h-8.311c-9.77,0-19.086,4.197-25.559,11.515l-13.425,15.179c-10.483,11.853-16.257,27.095-16.257,42.919v243.155
				c0,16.857,13.715,30.572,30.572,30.572h181.373c16.857,0,30.572-13.715,30.572-30.572V314.82c0-4.142-3.357-7.5-7.5-7.5
				s-7.5,3.358-7.5,7.5v136.52H195.614c-4.143,0-7.5,3.358-7.5,7.5c0,4.142,3.357,7.5,7.5,7.5h166.645v15.088
				c0,8.586-6.985,15.572-15.572,15.572H165.315c-8.587,0-15.572-6.986-15.572-15.572V466.34h14.828c4.143,0,7.5-3.358,7.5-7.5
				c0-4.142-3.357-7.5-7.5-7.5h-14.828V254.207h212.518V280.3C362.26,284.442,365.617,287.8,369.76,287.8z M211.755,15h88.492
				c0.878,0,1.592,0.714,1.592,1.592v49.856c0,0.877-0.714,1.591-1.593,1.591h-3.029h-38.563c-4.143,0-7.5,3.358-7.5,7.5
				c0,4.142,3.357,7.5,7.5,7.5h32.678l1.954,7.989c1.474,6.028,2.632,12.09,3.481,18.175h-81.53
				c0.849-6.085,2.007-12.148,3.481-18.175l1.954-7.989h5.135c4.143,0,7.5-3.358,7.5-7.5c0-4.142-3.357-7.5-7.5-7.5h-11.013
				c-0.003,0-0.006,0-0.008,0h-3.029c-0.878,0-1.592-0.714-1.592-1.591V16.592h-0.002C210.163,15.714,210.877,15,211.755,15z
				 M149.742,239.208v-0.001v-0.934c0-12.161,4.437-23.874,12.493-32.982l13.425-15.179c3.627-4.101,8.847-6.453,14.322-6.453h8.311
				c5.22,0,10.155-2.279,13.539-6.254c3.384-3.975,4.848-9.21,4.016-14.364c-2.091-12.94-2.766-25.92-2.057-38.837h84.421
				c0.709,12.917,0.033,25.898-2.057,38.838c-0.832,5.154,0.632,10.389,4.016,14.364c3.384,3.975,8.319,6.254,13.539,6.254h8.311
				c5.476,0,10.695,2.352,14.322,6.453l13.425,15.179c8.057,9.108,12.493,20.821,12.493,32.982v0.934H149.742z"/>
			<path d="M329.232,356.726c0-26.582-32.167-47.405-73.231-47.405s-73.231,20.823-73.231,47.405
				c0,26.583,32.167,47.405,73.231,47.405S329.232,383.308,329.232,356.726z M256.001,389.131c-31.564,0-58.231-14.84-58.231-32.405
				s26.667-32.406,58.231-32.406c31.564,0,58.231,14.84,58.231,32.405S287.566,389.131,256.001,389.131z"/>
		</g>
	</g>
</g>
<g>
</g>
<g>
</g>
<g>
</g>
<g>
</g>
<g>
</g>
<g>
</g>
<g>
</g>
<g>
</g>
<g>
</g>
<g>
</g>
<g>
</g>
<g>
</g>
<g>
</g>
<g>
</g>
<g>
</g>
</svg>
